<?xml version="1.0" encoding="UTF-8" ?>
<!DOCTYPE svg PUBLIC "-//W3C//DTD SVG 1.1//EN" "http://www.w3.org/Graphics/SVG/1.1/DTD/svg11.dtd">
<svg width="572pt" height="512pt" viewBox="0 0 572 512" version="1.1" xmlns="http://www.w3.org/2000/svg">
<g id="#ffffffff">
<path fill="#ffffff" opacity="1.00" d=" M 0.00 0.00 L 572.00 0.00 L 572.00 512.00 L 0.00 512.00 L 0.00 0.00 M 467.47 204.61 C 463.73 205.68 460.82 208.99 460.07 212.79 C 458.92 218.71 463.84 224.97 469.90 225.09 C 475.98 225.68 481.57 219.97 481.05 213.94 C 480.76 207.52 473.60 202.32 467.47 204.61 M 18.67 210.60 C 5.09 216.28 -0.08 235.14 7.64 247.34 C 14.20 256.11 26.57 255.25 35.20 260.77 C 38.20 262.63 38.79 266.96 36.80 269.76 C 34.47 273.26 29.81 274.16 25.89 273.82 C 19.63 273.28 14.18 269.76 9.48 265.81 C 6.75 271.29 3.84 276.67 0.97 282.08 C 13.99 291.11 32.07 294.03 46.45 286.51 C 52.82 283.36 57.15 276.92 58.21 269.95 C 59.82 262.39 59.02 253.38 53.11 247.81 C 46.97 242.11 38.39 240.94 30.82 238.14 C 27.93 237.03 24.58 234.56 25.12 231.07 C 25.84 227.07 30.13 224.80 33.93 224.96 C 39.08 224.54 43.78 227.13 47.74 230.15 C 50.30 224.85 53.07 219.66 55.65 214.37 C 44.37 208.96 30.69 205.52 18.67 210.60 M 74.00 218.99 C 73.99 224.32 74.01 229.66 74.00 234.99 C 71.98 234.99 69.96 235.00 67.94 235.01 C 67.94 240.19 67.92 245.38 67.95 250.56 C 69.97 250.56 71.98 250.57 73.99 250.57 C 74.01 263.34 73.99 276.11 74.00 288.89 C 80.33 288.89 86.66 288.89 92.99 288.89 C 93.01 276.11 92.99 263.34 93.00 250.57 C 96.52 250.57 100.04 250.56 103.56 250.56 C 103.57 245.37 103.57 240.18 103.56 234.99 C 100.04 235.00 96.52 234.99 93.00 235.00 C 92.99 229.66 93.01 224.32 93.00 218.99 C 86.66 218.98 80.33 218.98 74.00 218.99 M 502.91 242.99 C 493.56 254.17 492.99 271.60 501.62 283.35 C 507.42 291.70 517.35 296.89 527.47 297.22 C 511.83 304.84 494.10 305.99 477.00 306.83 C 446.85 306.91 416.69 307.01 386.54 306.78 C 399.24 282.95 411.84 259.05 424.58 235.23 C 417.49 234.96 410.40 235.20 403.31 235.09 C 398.59 244.30 394.04 253.60 389.23 262.77 C 384.31 253.60 379.67 244.28 374.80 235.09 C 367.59 235.13 360.37 235.12 353.16 235.10 C 361.77 250.67 370.41 266.21 379.00 281.79 C 374.50 290.09 370.15 298.48 365.67 306.80 C 346.45 306.97 327.21 306.96 307.99 306.80 C 308.00 299.18 308.01 291.56 307.98 283.93 C 316.37 292.77 331.12 292.87 340.60 285.75 C 350.46 278.54 354.04 264.80 350.64 253.32 C 348.12 243.62 339.96 235.41 329.97 233.71 C 322.09 231.86 313.12 234.23 307.97 240.68 C 307.98 238.76 307.99 236.85 308.00 234.94 C 301.67 234.93 295.34 234.93 289.01 234.94 C 289.00 258.90 288.99 282.85 289.01 306.80 C 193.57 307.03 98.13 306.83 2.69 306.91 C 2.68 312.33 2.68 317.76 2.69 323.19 C 150.45 323.20 298.21 323.19 445.97 323.19 C 469.24 323.07 492.86 324.25 515.67 318.74 C 527.78 315.77 539.96 310.84 548.75 301.71 C 558.77 291.25 562.80 276.12 561.72 261.92 C 560.99 250.69 554.33 239.96 544.27 234.77 C 530.83 227.23 512.46 230.89 502.91 242.99 M 138.21 233.28 C 129.86 234.05 121.14 237.03 115.75 243.79 C 105.81 255.54 107.84 275.48 120.43 284.55 C 132.61 293.21 150.31 292.99 162.54 284.54 C 175.71 275.33 177.25 254.25 166.29 242.76 C 159.17 235.29 148.26 232.51 138.21 233.28 M 202.99 241.43 C 202.99 239.32 203.00 237.22 203.00 235.11 C 196.67 235.11 190.33 235.11 184.00 235.11 C 184.00 253.04 184.00 270.96 184.01 288.89 C 190.33 288.89 196.66 288.89 202.99 288.89 C 203.04 278.58 202.93 268.26 203.04 257.96 C 202.80 252.95 206.85 248.07 211.99 248.08 C 216.45 248.30 220.22 252.48 219.98 256.95 C 220.04 267.60 219.97 278.24 220.01 288.89 C 226.33 288.89 232.66 288.89 239.00 288.89 C 239.07 278.55 238.88 268.22 239.07 257.89 C 239.13 253.12 243.16 248.57 248.08 248.68 C 252.55 248.43 255.81 252.80 255.95 256.94 C 256.09 267.59 255.95 278.24 256.01 288.89 C 262.33 288.89 268.66 288.88 274.99 288.89 C 275.02 278.28 274.97 267.66 275.02 257.05 C 274.94 251.89 274.91 246.34 272.21 241.77 C 267.85 234.97 258.53 232.77 251.06 234.90 C 245.75 235.98 241.66 239.86 238.53 244.08 C 235.75 239.51 231.41 235.66 226.00 234.76 C 217.78 232.64 208.92 235.50 202.99 241.43 M 461.00 235.11 C 461.00 253.04 461.00 270.96 461.00 288.89 C 467.33 288.88 473.66 288.89 480.00 288.89 C 480.00 270.96 480.00 253.04 480.00 235.11 C 473.66 235.11 467.33 235.11 461.00 235.11 M 433.22 267.26 C 429.26 268.54 426.09 271.88 425.09 275.93 C 423.51 282.22 427.70 289.20 434.11 290.47 C 442.27 292.89 450.92 284.51 448.75 276.26 C 447.41 269.45 439.80 265.13 433.22 267.26 Z" />
<path fill="#ffffff" opacity="1.00" d=" M 525.46 247.52 C 535.60 245.19 546.44 254.48 545.19 264.95 C 545.28 275.04 534.32 283.08 524.70 280.37 C 517.40 278.68 511.56 271.60 511.95 264.00 C 511.57 256.14 517.85 248.93 525.46 247.52 Z" />
<path fill="#ffffff" opacity="1.00" d=" M 138.38 249.51 C 145.99 247.22 154.67 253.95 154.05 261.95 C 154.40 269.58 146.40 276.01 139.01 274.18 C 132.99 273.11 128.34 267.09 128.96 260.99 C 129.03 255.60 133.28 250.86 138.38 249.51 Z" />
<path fill="#ffffff" opacity="1.00" d=" M 316.49 249.56 C 323.86 247.21 332.09 253.43 332.31 261.06 C 333.31 269.06 325.13 276.57 317.26 274.62 C 310.39 273.19 305.64 265.48 307.63 258.72 C 308.71 254.37 312.16 250.76 316.49 249.56 Z" />
</g>
<g id="#0071bcff">
<path fill="#0071bc" opacity="1.00" d=" M 467.47 204.61 C 473.60 202.32 480.76 207.52 481.05 213.94 C 481.57 219.97 475.98 225.68 469.90 225.09 C 463.84 224.97 458.92 218.71 460.07 212.79 C 460.82 208.99 463.73 205.68 467.47 204.61 Z" />
<path fill="#0071bc" opacity="1.00" d=" M 502.91 242.99 C 512.46 230.89 530.83 227.23 544.27 234.77 C 554.33 239.96 560.99 250.69 561.72 261.92 C 562.80 276.12 558.77 291.25 548.75 301.71 C 539.96 310.84 527.78 315.77 515.67 318.74 C 492.86 324.25 469.24 323.07 445.97 323.19 C 298.21 323.19 150.45 323.20 2.69 323.19 C 2.68 317.76 2.68 312.33 2.69 306.91 C 98.13 306.83 193.57 307.03 289.01 306.80 C 295.33 306.61 301.66 306.61 307.99 306.80 C 327.21 306.96 346.45 306.97 365.67 306.80 C 372.63 306.62 379.58 306.62 386.54 306.78 C 416.69 307.01 446.85 306.91 477.00 306.83 C 494.10 305.99 511.83 304.84 527.47 297.22 C 517.35 296.89 507.42 291.70 501.62 283.35 C 492.99 271.60 493.56 254.17 502.91 242.99 M 525.46 247.52 C 517.85 248.93 511.57 256.14 511.95 264.00 C 511.56 271.60 517.40 278.68 524.70 280.37 C 534.32 283.08 545.28 275.04 545.19 264.95 C 546.44 254.48 535.60 245.19 525.46 247.52 Z" />
<path fill="#0071bc" opacity="1.00" d=" M 461.00 235.11 C 467.33 235.11 473.66 235.11 480.00 235.11 C 480.00 253.04 480.00 270.96 480.00 288.89 C 473.66 288.89 467.33 288.88 461.00 288.89 C 461.00 270.96 461.00 253.04 461.00 235.11 Z" />
<path fill="#0071bc" opacity="1.00" d=" M 433.22 267.26 C 439.80 265.13 447.41 269.45 448.75 276.26 C 450.92 284.51 442.27 292.89 434.11 290.47 C 427.70 289.20 423.51 282.22 425.09 275.93 C 426.09 271.88 429.26 268.54 433.22 267.26 Z" />
</g>
<g id="#8cc63fff">
<path fill="#8cc63f" opacity="1.00" d=" M 18.67 210.60 C 30.69 205.52 44.37 208.96 55.65 214.37 C 53.07 219.66 50.30 224.85 47.74 230.15 C 43.78 227.13 39.08 224.54 33.93 224.96 C 30.13 224.80 25.84 227.07 25.12 231.07 C 24.58 234.56 27.93 237.03 30.82 238.14 C 38.39 240.94 46.97 242.11 53.11 247.81 C 59.02 253.38 59.82 262.39 58.21 269.95 C 57.15 276.92 52.82 283.36 46.45 286.51 C 32.07 294.03 13.99 291.11 0.97 282.08 C 3.84 276.67 6.75 271.29 9.48 265.81 C 14.18 269.76 19.63 273.28 25.89 273.82 C 29.81 274.16 34.47 273.26 36.80 269.76 C 38.79 266.96 38.20 262.63 35.20 260.77 C 26.57 255.25 14.20 256.11 7.64 247.34 C -0.08 235.14 5.09 216.28 18.67 210.60 Z" />
<path fill="#8cc63f" opacity="1.00" d=" M 74.00 218.99 C 80.33 218.98 86.66 218.98 93.00 218.99 C 93.01 224.32 92.99 229.66 93.00 235.00 C 96.52 234.99 100.04 235.00 103.56 234.99 C 103.57 240.18 103.57 245.37 103.56 250.56 C 100.04 250.56 96.52 250.57 93.00 250.57 C 92.99 263.34 93.01 276.11 92.99 288.89 C 86.66 288.89 80.33 288.89 74.00 288.89 C 73.99 276.11 74.01 263.34 73.99 250.57 C 71.98 250.57 69.97 250.56 67.95 250.56 C 67.92 245.38 67.94 240.19 67.94 235.01 C 69.96 235.00 71.98 234.99 74.00 234.99 C 74.01 229.66 73.99 224.32 74.00 218.99 Z" />
<path fill="#8cc63f" opacity="1.00" d=" M 138.21 233.28 C 148.26 232.51 159.17 235.29 166.29 242.76 C 177.25 254.25 175.71 275.33 162.54 284.54 C 150.31 292.99 132.61 293.21 120.43 284.55 C 107.84 275.48 105.81 255.54 115.75 243.79 C 121.14 237.03 129.86 234.05 138.21 233.28 M 138.38 249.51 C 133.28 250.86 129.03 255.60 128.96 260.99 C 128.34 267.09 132.99 273.11 139.01 274.18 C 146.40 276.01 154.40 269.58 154.05 261.95 C 154.67 253.95 145.99 247.22 138.38 249.51 Z" />
<path fill="#8cc63f" opacity="1.00" d=" M 307.97 240.68 C 313.12 234.23 322.09 231.86 329.97 233.71 C 339.96 235.41 348.12 243.62 350.64 253.32 C 354.04 264.80 350.46 278.54 340.60 285.75 C 331.12 292.87 316.37 292.77 307.98 283.93 C 308.01 291.56 308.00 299.18 307.99 306.80 C 301.66 306.61 295.33 306.61 289.01 306.80 C 288.99 282.85 289.00 258.90 289.01 234.94 C 295.34 234.93 301.67 234.93 308.00 234.94 C 307.99 236.85 307.98 238.76 307.97 240.68 M 316.49 249.56 C 312.16 250.76 308.71 254.37 307.63 258.72 C 305.64 265.48 310.39 273.19 317.26 274.62 C 325.13 276.57 333.31 269.06 332.31 261.06 C 332.09 253.43 323.86 247.21 316.49 249.56 Z" />
<path fill="#8cc63f" opacity="1.00" d=" M 202.99 241.43 C 208.92 235.50 217.78 232.64 226.00 234.76 C 231.41 235.66 235.75 239.51 238.53 244.08 C 241.66 239.86 245.75 235.98 251.06 234.90 C 258.53 232.77 267.85 234.97 272.21 241.77 C 274.91 246.34 274.94 251.89 275.02 257.05 C 274.97 267.66 275.02 278.28 274.99 288.89 C 268.66 288.88 262.33 288.89 256.01 288.89 C 255.95 278.24 256.09 267.59 255.95 256.94 C 255.81 252.80 252.55 248.43 248.08 248.68 C 243.16 248.57 239.13 253.12 239.07 257.89 C 238.88 268.22 239.07 278.55 239.00 288.89 C 232.66 288.89 226.33 288.89 220.01 288.89 C 219.97 278.24 220.04 267.60 219.98 256.95 C 220.22 252.48 216.45 248.30 211.99 248.08 C 206.85 248.07 202.80 252.95 203.04 257.96 C 202.93 268.26 203.04 278.58 202.99 288.89 C 196.66 288.89 190.33 288.89 184.01 288.89 C 184.00 270.96 184.00 253.04 184.00 235.11 C 190.33 235.11 196.67 235.11 203.00 235.11 C 203.00 237.22 202.99 239.32 202.99 241.43 Z" />
<path fill="#8cc63f" opacity="1.00" d=" M 353.16 235.10 C 360.37 235.12 367.59 235.13 374.80 235.09 C 379.67 244.28 384.31 253.60 389.23 262.77 C 394.04 253.60 398.59 244.30 403.31 235.09 C 410.40 235.20 417.49 234.96 424.58 235.23 C 411.84 259.05 399.24 282.95 386.54 306.78 C 379.58 306.62 372.63 306.62 365.67 306.80 C 370.15 298.48 374.50 290.09 379.00 281.79 C 370.41 266.21 361.77 250.67 353.16 235.10 Z" />
</g>
</svg>
